<?xml version="1.0" standalone="no"?><svg xmlns="http://www.w3.org/2000/svg" viewBox="0 0 1440 320"><path fill="#0d6efd" fill-opacity="1" d="M0,288L24,240C48,192,96,96,144,90.7C192,85,240,171,288,224C336,277,384,299,432,266.7C480,235,528,149,576,144C624,139,672,213,720,208C768,203,816,117,864,117.3C912,117,960,203,1008,229.3C1056,256,1104,224,1152,197.3C1200,171,1248,149,1296,149.3C1344,149,1392,171,1416,181.3L1440,192L1440,0L1416,0C1392,0,1344,0,1296,0C1248,0,1200,0,1152,0C1104,0,1056,0,1008,0C960,0,912,0,864,0C816,0,768,0,720,0C672,0,624,0,576,0C528,0,480,0,432,0C384,0,336,0,288,0C240,0,192,0,144,0C96,0,48,0,24,0L0,0Z"></path></svg>